<svg xmlns="http://www.w3.org/2000/svg" viewBox="0 0 200 260" width="200" height="260" role="img" aria-label="Armoured Kossars"><g stroke-linejoin="round" stroke-linecap="round"><ellipse cx="100" cy="240" rx="54" ry="11" fill="#3a2f26" opacity="0.16"/><rect x="76" y="172" width="20" height="42" rx="10" fill="#7a5a3e" stroke="#3a2f26" stroke-width="4"/><rect x="104" y="172" width="20" height="42" rx="10" fill="#7a5a3e" stroke="#3a2f26" stroke-width="4"/><rect x="66" y="116" width="68" height="68" rx="22" fill="#3f7fbf" stroke="#3a2f26" stroke-width="4"/><rect x="66" y="158" width="68" height="14" rx="6" fill="#e0b45c" stroke="#3a2f26" stroke-width="4"/><rect x="46" y="122" width="20" height="56" rx="10" fill="#2d5c8c" stroke="#3a2f26" stroke-width="4"/><rect x="134" y="122" width="20" height="56" rx="10" fill="#2d5c8c" stroke="#3a2f26" stroke-width="4"/><line x1="100" y1="124" x2="100" y2="154" stroke="#3a2f26" stroke-width="3" stroke-linecap="round"/><circle cx="100" cy="82" r="44" fill="#f2c9a0" stroke="#3a2f26" stroke-width="4"/><ellipse cx="82" cy="88" rx="6" ry="7.5" fill="#332b25" stroke="none" stroke-width="4"/><circle cx="79.5" cy="85" r="2.4" fill="#ffffff" stroke="none" stroke-width="4"/><ellipse cx="118" cy="88" rx="6" ry="7.5" fill="#332b25" stroke="none" stroke-width="4"/><circle cx="115.5" cy="85" r="2.4" fill="#ffffff" stroke="none" stroke-width="4"/><line x1="72" y1="72" x2="90" y2="78" stroke="#3a2f26" stroke-width="5" stroke-linecap="round"/><line x1="128" y1="72" x2="110" y2="78" stroke="#3a2f26" stroke-width="5" stroke-linecap="round"/><ellipse cx="68" cy="100" rx="9" ry="6" fill="#e79a86" opacity="0.5"/><ellipse cx="132" cy="100" rx="9" ry="6" fill="#e79a86" opacity="0.5"/><path d="M58 70 A42 42 0 0 1 142 70 Z" fill="#b9c3cc" stroke="#3a2f26" stroke-width="4"/><circle cx="100" cy="26" r="9" fill="#e0b45c" stroke="#3a2f26" stroke-width="4"/><rect x="48" y="58" width="104" height="22" rx="11" fill="#7a5a3e" stroke="#3a2f26" stroke-width="4"/><rect x="94" y="76" width="12" height="22" rx="5" fill="#b9c3cc" stroke="#3a2f26" stroke-width="4"/><circle cx="56" cy="178" r="10" fill="#f2c9a0" stroke="#3a2f26" stroke-width="4"/><circle cx="144" cy="178" r="10" fill="#f2c9a0" stroke="#3a2f26" stroke-width="4"/><g transform="translate(144,178) rotate(-18)"><path d="M2 -46 C30 -28 30 28 2 46" fill="none" stroke="#7d5730" stroke-width="7"/><line x1="6" y1="-43" x2="6" y2="43" stroke="#6b5a48" stroke-width="3" stroke-linecap="round"/><rect x="-4" y="-8" width="8" height="16" rx="3" fill="#8b5e3c" stroke="#3a2f26" stroke-width="4"/></g><g transform="translate(50,152)"><ellipse cx="0" cy="0" rx="27" ry="34" fill="#2d5c8c" stroke="#3a2f26" stroke-width="4"/><circle cx="0" cy="0" r="9" fill="#e0b45c" stroke="#3a2f26" stroke-width="4"/></g></g></svg>
