<svg xmlns="http://www.w3.org/2000/svg" viewBox="0 0 200 260" width="200" height="260" role="img" aria-label="War Bear Riders"><g stroke-linejoin="round" stroke-linecap="round"><ellipse cx="100" cy="240" rx="54" ry="11" fill="#3a2f26" opacity="0.16"/><rect x="48" y="178" width="18" height="52" rx="9" fill="#6f5741" stroke="#3a2f26" stroke-width="4"/><rect x="72" y="178" width="18" height="52" rx="9" fill="#6f5741" stroke="#3a2f26" stroke-width="4"/><rect x="124" y="178" width="18" height="52" rx="9" fill="#6f5741" stroke="#3a2f26" stroke-width="4"/><rect x="148" y="178" width="18" height="52" rx="9" fill="#6f5741" stroke="#3a2f26" stroke-width="4"/><rect x="36" y="138" width="132" height="58" rx="28" fill="#6f5741" stroke="#3a2f26" stroke-width="4"/><circle cx="160" cy="130" r="30" fill="#6f5741" stroke="#3a2f26" stroke-width="4"/><circle cx="146" cy="106" r="11" fill="#6f5741" stroke="#3a2f26" stroke-width="4"/><circle cx="176" cy="106" r="11" fill="#6f5741" stroke="#3a2f26" stroke-width="4"/><ellipse cx="172" cy="138" rx="14" ry="11" fill="#4f3d2c" stroke="#3a2f26" stroke-width="4"/><ellipse cx="166" cy="124" rx="4" ry="5" fill="#332b25" stroke="none" stroke-width="4"/><ellipse cx="182" cy="124" rx="4" ry="5" fill="#332b25" stroke="none" stroke-width="4"/><g transform="translate(24,-8) scale(0.72)"><rect x="76" y="172" width="20" height="42" rx="10" fill="#7a5a3e" stroke="#3a2f26" stroke-width="4"/><rect x="104" y="172" width="20" height="42" rx="10" fill="#7a5a3e" stroke="#3a2f26" stroke-width="4"/><rect x="66" y="116" width="68" height="68" rx="22" fill="#3f7fbf" stroke="#3a2f26" stroke-width="4"/><rect x="66" y="158" width="68" height="14" rx="6" fill="#e0b45c" stroke="#3a2f26" stroke-width="4"/><rect x="46" y="122" width="20" height="56" rx="10" fill="#2d5c8c" stroke="#3a2f26" stroke-width="4"/><rect x="134" y="122" width="20" height="56" rx="10" fill="#2d5c8c" stroke="#3a2f26" stroke-width="4"/><line x1="100" y1="124" x2="100" y2="154" stroke="#3a2f26" stroke-width="3" stroke-linecap="round"/><circle cx="100" cy="82" r="44" fill="#f2c9a0" stroke="#3a2f26" stroke-width="4"/><ellipse cx="82" cy="88" rx="6" ry="7.5" fill="#332b25" stroke="none" stroke-width="4"/><circle cx="79.5" cy="85" r="2.4" fill="#ffffff" stroke="none" stroke-width="4"/><ellipse cx="118" cy="88" rx="6" ry="7.5" fill="#332b25" stroke="none" stroke-width="4"/><circle cx="115.5" cy="85" r="2.4" fill="#ffffff" stroke="none" stroke-width="4"/><line x1="72" y1="72" x2="90" y2="78" stroke="#3a2f26" stroke-width="5" stroke-linecap="round"/><line x1="128" y1="72" x2="110" y2="78" stroke="#3a2f26" stroke-width="5" stroke-linecap="round"/><ellipse cx="68" cy="100" rx="9" ry="6" fill="#e79a86" opacity="0.5"/><ellipse cx="132" cy="100" rx="9" ry="6" fill="#e79a86" opacity="0.5"/><path d="M58 70 A42 42 0 0 1 142 70 Z" fill="#b9c3cc" stroke="#3a2f26" stroke-width="4"/><circle cx="100" cy="26" r="9" fill="#e0b45c" stroke="#3a2f26" stroke-width="4"/><rect x="48" y="58" width="104" height="22" rx="11" fill="#7a5a3e" stroke="#3a2f26" stroke-width="4"/><rect x="94" y="76" width="12" height="22" rx="5" fill="#b9c3cc" stroke="#3a2f26" stroke-width="4"/><circle cx="56" cy="178" r="10" fill="#f2c9a0" stroke="#3a2f26" stroke-width="4"/><circle cx="144" cy="178" r="10" fill="#f2c9a0" stroke="#3a2f26" stroke-width="4"/><g transform="translate(144,178) rotate(12)"><rect x="-5" y="-100" width="10" height="116" rx="4" fill="#a97844" stroke="#3a2f26" stroke-width="4"/><path d="M5 -96 C40 -88 40 -46 5 -38 Z" fill="#b9c3cc" stroke="#3a2f26" stroke-width="4"/><path d="M-5 -90 C-22 -84 -22 -58 -5 -52 Z" fill="#b9c3cc" stroke="#3a2f26" stroke-width="4"/></g></g></g></svg>
